<svg width="150" height="150" viewBox="0 0 150 150" fill="none" xmlns="http://www.w3.org/2000/svg">
<path d="M133.602 88.9273C133.602 44.573 94.4289 30.09 76.3577 30.5588C57.8303 65.0176 33.3096 133.463 77.7754 132.981C122.241 132.499 132.983 103.729 133.602 88.9273Z" fill="#0A0A0A"/>
<path fill-rule="evenodd" clip-rule="evenodd" d="M117.65 17.3859C105.55 21.419 68.9354 49.3674 72.6003 81.9861C76.2652 114.605 107.75 112.034 121.85 79.8342C133.45 56.2854 130.25 13.1861 117.65 17.3859Z" fill="#0A0A0A"/>
<path d="M89.6502 37.5868C90.9169 38.6701 94.0602 40.1868 96.5002 37.5868C101.167 32.6201 112.12 22.4168 120 21.5368C122.1 20.5868 127.14 34.8398 122.9 60.5998C122.841 61.6548 123.087 63.7122 123.718 64.3572C123.813 64.4176 123.907 64.4775 124 64.5368C123.899 64.5078 123.805 64.4458 123.718 64.3572C111.782 56.7531 88.6978 41.0394 89.6502 37.5868Z" fill="white"/>
<path d="M129.149 92.4335C131.447 47.3623 93.8906 35.5078 74.8249 35.0894C66.7215 44.3285 71.4484 101.556 74.8248 129.139C118.55 126.989 128.763 103.882 129.149 92.4335Z" fill="white"/>
<path d="M16.1001 88.9273C16.1001 44.573 55.2732 30.09 73.3444 30.5588C91.8718 65.0176 116.392 133.463 71.9267 132.981C27.461 132.499 16.7193 103.729 16.1001 88.9273Z" fill="#0A0A0A"/>
<path fill-rule="evenodd" clip-rule="evenodd" d="M32.0517 17.3859C44.1516 21.419 80.7665 49.3674 77.1016 81.9861C73.4367 114.605 41.9519 112.034 27.8519 79.8342C16.2519 56.2854 19.4516 13.1861 32.0517 17.3859Z" fill="#0A0A0A"/>
<path d="M20.5526 92.1911C18.2546 47.1199 55.784 35.4682 74.8498 35.0498C82.9533 44.289 78.2538 101.313 74.8774 128.897C31.1516 126.747 20.9389 103.64 20.5526 92.1911Z" fill="white"/>
<path d="M60.0516 37.3451C58.7849 38.4284 55.7898 40.7503 53.3498 38.1503C48.6831 33.1836 37.6798 22.5799 29.7998 21.6999C27.6998 20.7499 21.1998 41.1503 26.5516 60.2941C26.9453 61.3533 26.6396 63.4538 25.9901 64.1115C25.8932 64.1733 25.797 64.2345 25.7016 64.2951C25.8037 64.2659 25.9002 64.2026 25.9901 64.1115C37.9278 56.506 61.0039 40.7971 60.0516 37.3451Z" fill="white"/>
<path d="M102 123C85 132 67.4167 128.483 60 126.5L73.7002 36.8999C73.6502 36.5999 71.54 36.52 71.5 36C71.46 35.48 75.5 34 79 35.9999L107.65 106.8C113.717 108.933 119.32 115.04 102 123Z" fill="white"/>
<path d="M77.7002 30.7C75.5002 30.34 71.7502 30.6 71.7002 30.75L73.8002 34.1L75.6502 33.3L76.8502 32.35C77.8502 31.9667 79.9002 31.06 77.7002 30.7Z" fill="#0A0A0A"/>
<path d="M138.349 92.4807C131.834 91.9192 123.162 93.2793 119.449 94.0306C115.249 94.8806 115.749 91.7046 117.449 90.8807C122.649 88.3607 133.949 87.9308 138.349 88.3307C142.749 88.7306 141.249 92.7306 138.349 92.4807Z" fill="#0A0A0A"/>
<path d="M136.334 107.616C130.337 105.008 121.684 103.533 117.925 103.062C113.674 102.529 115.16 99.678 117.034 99.439C122.766 98.7076 133.613 101.901 137.656 103.683C141.7 105.464 139.003 108.778 136.334 107.616Z" fill="#0A0A0A"/>
<path d="M11.6657 92.0803C18.181 91.5188 26.8532 92.8789 30.5657 93.6302C34.7658 94.4802 34.2657 91.3042 32.5657 90.4803C27.3657 87.9603 16.0657 87.5304 11.6657 87.9303C7.2657 88.3302 8.76575 92.3302 11.6657 92.0803Z" fill="#0A0A0A"/>
<path d="M13.6812 107.216C19.6778 104.608 28.3312 103.133 32.0896 102.662C36.3415 102.129 34.8553 99.2781 32.9814 99.0391C27.2494 98.3077 16.4017 101.501 12.3586 103.283C8.31546 105.064 11.0121 108.378 13.6812 107.216Z" fill="#0A0A0A"/>
<path d="M33.9999 31.2499C37.3072 31.6533 40.5218 38.5574 43.2218 42.2741C39.2718 42.474 32.6999 53.8002 30.9499 53.5002C29.1999 53.2002 29.8999 30.7499 33.9999 31.2499Z" fill="#CACACA"/>
<path d="M42.8502 44.4001C40.6502 46.0501 36.8109 48.6997 33.6056 52.6249C30.4002 56.5501 29.6502 52.0501 30.9502 50.6501C32.2502 49.2501 38.8441 42.6501 40.1221 41.8501C41.4002 41.0501 40.6221 40.3165 40.1221 39.7665C39.6221 39.2165 34.0002 34.132 32.7002 33.448C31.4002 32.764 32.5502 30.3993 34.2502 30.5493C35.9502 30.6993 43.1336 37.4249 45.2002 39.7665C47.2668 42.1081 45.0502 42.7501 42.8502 44.4001Z" fill="#0A0A0A"/>
<path d="M115.423 31.207C112.116 31.6103 108.901 38.5144 106.201 42.2311C110.151 42.4311 116.723 53.7572 118.473 53.4572C120.223 53.1572 119.523 30.707 115.423 31.207Z" fill="#CACACA"/>
<path d="M106.573 44.3576C108.773 46.0076 112.612 48.6573 115.818 52.5824C119.023 56.5076 119.773 52.0076 118.473 50.6076C117.173 49.2076 110.579 42.6076 109.301 41.8076C108.023 41.0076 108.801 40.2741 109.301 39.7241C109.801 39.1741 115.423 34.0895 116.723 33.4055C118.023 32.7215 116.873 30.3568 115.173 30.5068C113.473 30.6569 106.29 37.3825 104.223 39.7241C102.156 42.0657 104.373 42.7076 106.573 44.3576Z" fill="#0A0A0A"/>
<path d="M42.6741 80.7899C44.7741 78.0899 54.1741 78.3899 57.7966 84.2807C60.7241 86.4899 61.2591 82.8809 60.4466 81.6807C53.1761 70.9411 41.5241 75.6398 39.6241 78.7399C37.7241 81.84 40.5741 83.4899 42.6741 80.7899Z" fill="#0A0A0A"/>
<path d="M74.3568 100.1C68.2953 97.2235 59.9853 89.5791 74.3568 89.7146C79.8316 89.5193 88.6305 91.2262 74.3568 100.1Z" fill="#0A0A0A"/>
<path d="M88.1533 102.626C85.7582 107.042 76.2022 107.362 75.6 98.9918C74.9977 90.6213 74 98.0141 74 98.0141V105.483C81.187 112.821 89.2793 107.843 91.1646 104.029C93.05 100.215 90.5483 98.2099 88.1533 102.626Z" fill="#0A0A0A"/>
<path d="M60.0731 102.526C62.4682 106.942 72.0241 107.262 72.6264 98.8917C73.2287 90.5212 74.2264 97.914 74.2264 97.914V105.383C67.0393 112.721 58.9471 107.743 57.0618 103.929C55.1764 100.115 57.678 98.1097 60.0731 102.526Z" fill="#0A0A0A"/>
<path d="M115.523 80.4499C116.443 94.3299 102.857 103.983 96.0235 107.05C99.4735 97.1999 91.2442 92.9499 84.9442 90.2999C78.6442 87.6499 71.1735 73.7499 82.7735 62.3999C91.0656 54.2865 91.0068 47.0666 88.7735 42.8999C104.973 48.1799 103.49 63.9666 100.723 71.1999C105.803 69.8799 108.357 63.0832 108.973 59.7499C115.533 67.1899 111.357 80.3499 108.473 86.0999C110.833 85.3399 114.157 82.0166 115.523 80.4499Z" fill="#E42322"/>
<path d="M90.6216 84.0669L90.5967 84.0906C87.6467 86.8907 87.1342 82.6907 87.9467 81.4906C95.2172 70.751 106.147 74.3905 108.047 77.4906C109.947 80.5907 106.647 80.7906 104.997 79.8906C99.0135 76.1013 93.5773 81.2614 90.6216 84.0669Z" fill="#0A0A0A"/>
</svg>
